<?xml version="1.0" encoding="utf-8"?>
<!-- Generator: Adobe Illustrator 21.1.0, SVG Export Plug-In . SVG Version: 6.00 Build 0)  -->
<svg version="1.1" id="Layer_1" xmlns="http://www.w3.org/2000/svg" xmlns:xlink="http://www.w3.org/1999/xlink" x="0px" y="0px"
	 viewBox="0 0 695.6 244.6" style="enable-background:new 0 0 695.6 244.6;" xml:space="preserve">
<style type="text/css">
	.st0{fill:#158AFF;}
	.st1{fill:#FD7DA1;}
	.st2{fill:#06376C;}
</style>
<g>
	<path class="st0" d="M138.1,48.9c2,0,3.9,0.1,5.8,0.3C141.2,21.6,117.9,0,89.5,0H0v195.7h48.6V48.9H138.1z"/>
	<path class="st1" d="M171.7,146.7c12.8-10,21.1-25.6,21.1-43.2c0-28.2-21.4-51.5-48.9-54.4c0.2,1.8,0.3,3.6,0.3,5.4
		c0,17.5-8.3,33.2-21.1,43.2c12.8,10,21.1,25.6,21.1,43.2c0,30.2-24.5,54.7-54.7,54.7c-0.1,0-0.2,0-0.3,0H48.6v48.9h89.3
		c0.1,0,0.2,0,0.3,0c30.2,0,54.7-24.5,54.7-54.7C192.8,172.4,184.5,156.7,171.7,146.7z"/>
	<path class="st2" d="M89.5,195.7c30.2,0,54.7-24.5,54.7-54.7c0-17.5-8.3-33.2-21.1-43.2c12.8-10,21.1-25.6,21.1-43.2
		c0-1.8-0.1-3.7-0.3-5.4c-1.9-0.2-3.9-0.3-5.8-0.3H48.6v146.7h40.7C89.4,195.7,89.5,195.7,89.5,195.7z"/>
	<g>
		<path class="st2" d="M250.3,165.2v-84h33.2c7.2,0,13.3,2.2,18.3,6.6c4.9,4.4,7.4,10.1,7.4,17c0,6.9-2.7,12.5-8,16.8
			c3.5,2,6.2,4.6,8.2,7.9c2,3.3,2.9,7,2.9,11.3c0,7.1-2.5,12.9-7.6,17.5s-11.3,6.9-18.7,6.9H250.3z M266.9,115.2h16.6
			c2.6,0,4.7-0.9,6.5-2.6s2.6-4,2.6-6.6c0-2.7-0.9-4.9-2.6-6.6c-1.7-1.7-3.9-2.6-6.5-2.6h-16.6V115.2z M266.9,149.8h19
			c2.8,0,5.1-0.9,7-2.8c1.8-1.9,2.8-4.3,2.8-7.1c0-2.8-0.9-5.2-2.8-7c-1.8-1.9-4.2-2.8-7-2.8h-19V149.8z"/>
		<path class="st2" d="M324.3,151.3c-2.8-4.9-4.2-10.2-4.2-16.1s1.4-11.2,4.2-16.1s6.6-8.7,11.5-11.5c4.8-2.8,10.2-4.2,15.9-4.2
			c5.8,0,11.2,1.4,16,4.2c4.9,2.8,8.7,6.6,11.5,11.5c2.8,4.9,4.2,10.2,4.2,16.1s-1.4,11.2-4.2,16.1c-2.8,4.9-6.7,8.7-11.5,11.5
			s-10.2,4.2-16,4.2c-5.8,0-11.1-1.4-15.9-4.2C330.9,160,327.1,156.2,324.3,151.3z M340.1,123.3c-3.1,3.1-4.6,7.1-4.6,11.9
			s1.5,8.8,4.6,11.9c3.1,3.1,6.9,4.7,11.5,4.7c4.7,0,8.6-1.6,11.7-4.7s4.7-7.1,4.7-11.9c0-4.8-1.6-8.8-4.7-11.9s-7-4.7-11.7-4.7
			C347.1,118.7,343.2,120.2,340.1,123.3z"/>
		<path class="st2" d="M395.5,151.3c-2.8-4.9-4.2-10.2-4.2-16.1s1.4-11.2,4.2-16.1s6.6-8.7,11.5-11.5c4.8-2.8,10.2-4.2,15.9-4.2
			c5.8,0,11.2,1.4,16,4.2c4.9,2.8,8.7,6.6,11.5,11.5c2.8,4.9,4.2,10.2,4.2,16.1s-1.4,11.2-4.2,16.1c-2.8,4.9-6.7,8.7-11.5,11.5
			s-10.2,4.2-16,4.2c-5.8,0-11.1-1.4-15.9-4.2C402.2,160,398.3,156.2,395.5,151.3z M411.4,123.3c-3.1,3.1-4.6,7.1-4.6,11.9
			s1.5,8.8,4.6,11.9c3.1,3.1,6.9,4.7,11.5,4.7c4.7,0,8.6-1.6,11.7-4.7s4.7-7.1,4.7-11.9c0-4.8-1.6-8.8-4.7-11.9s-7-4.7-11.7-4.7
			C418.3,118.7,414.5,120.2,411.4,123.3z"/>
		<path class="st2" d="M465.6,165.2V77.6h15.5v87.6H465.6z"/>
		<path class="st2" d="M492.1,135.2c0-9.1,2.9-16.6,8.8-22.6c5.9-6,13.5-9.1,22.8-9.1c5.8,0,11,1.4,15.7,4.2
			c4.7,2.8,8.3,6.7,10.8,11.5c2.6,4.8,3.8,10.1,3.8,16c0,2-0.2,4.1-0.6,6.4h-45.2c1.1,3.8,3.1,6.6,6.1,8.5c3,1.9,6.6,2.8,10.9,2.8
			c2.9,0,5.5-0.5,7.9-1.6c2.3-1.1,4.2-2.5,5.6-4.3l12.5,7.2c-2.9,4.1-6.5,7.3-10.9,9.5c-4.4,2.2-9.5,3.3-15.2,3.3
			c-4.9,0-9.5-0.8-13.6-2.4c-4.1-1.6-7.6-3.9-10.4-6.7c-2.8-2.9-5-6.2-6.5-10.1C492.9,143.8,492.1,139.7,492.1,135.2z M508.1,129.6
			h30.6c-0.9-4-2.7-7-5.5-9s-5.9-3-9.4-3c-4.1,0-7.5,1-10.3,3.1C510.8,122.8,509,125.8,508.1,129.6z"/>
		<path class="st2" d="M569.9,157.7c-5.7-6.1-8.6-13.6-8.6-22.5c0-8.9,2.9-16.4,8.6-22.5c5.7-6.1,12.6-9.2,20.6-9.2
			c8.3,0,14.8,2.9,19.6,8.8v-7.1h15.5v60H610v-7.1c-4.7,5.9-11.2,8.8-19.6,8.8C582.4,166.9,575.6,163.9,569.9,157.7z M581.5,123
			c-3.1,3.1-4.7,7.2-4.7,12.2c0,5,1.6,9.1,4.7,12.2c3.1,3.1,7.1,4.7,11.9,4.7c4.8,0,8.8-1.6,12-4.7c3.1-3.1,4.7-7.2,4.7-12.2
			c0-5-1.6-9.1-4.7-12.2c-3.1-3.1-7.1-4.7-12-4.7C588.5,118.3,584.6,119.9,581.5,123z"/>
		<path class="st2" d="M639.6,165.2v-60H655v6.7c1.8-2.7,4.2-4.8,7.3-6.2c3.1-1.5,6.6-2.2,10.6-2.2c6.6,0,12,2.2,16.3,6.6
			c4.3,4.4,6.4,10.5,6.4,18.2v36.9h-15.5v-34.9c0-4-1.1-7-3.3-9.2c-2.2-2.1-5-3.2-8.6-3.2c-4,0-7.2,1.2-9.6,3.7s-3.6,6.2-3.6,11.2
			v32.4H639.6z"/>
	</g>
</g>
</svg>
